<?xml version="1.0" standalone="no"?>
<!DOCTYPE svg PUBLIC "-//W3C//DTD SVG 20010904//EN"
 "http://www.w3.org/TR/2001/REC-SVG-20010904/DTD/svg10.dtd">
<svg version="1.0" xmlns="http://www.w3.org/2000/svg"
 width="500.000000pt" height="500.000000pt" viewBox="0 0 500.000000 500.000000"
 preserveAspectRatio="xMidYMid meet">

<g transform="translate(0.000000,500.000000) scale(0.100000,-0.100000)"
fill="#000000" stroke="none">
<path d="M2360 3354 c-311 -60 -500 -211 -500 -400 0 -56 3 -65 26 -83 26 -21
35 -21 616 -21 l589 0 24 25 c32 31 34 101 4 179 -43 116 -207 234 -389 281
-64 16 -316 29 -370 19z m344 -60 c103 -23 241 -92 299 -151 59 -59 84 -104
93 -170 11 -89 53 -83 -592 -83 -371 0 -572 4 -585 10 -28 15 -25 82 7 150 60
131 222 224 450 260 76 12 237 4 328 -16z"/>
<path d="M2427 3294 c-14 -15 -6 -34 14 -34 14 0 19 5 17 17 -3 18 -20 27 -31
17z"/>
<path d="M2645 3240 c-8 -14 3 -30 21 -30 8 0 14 9 14 20 0 21 -24 28 -35 10z"/>
<path d="M2155 3190 c-8 -14 3 -30 21 -30 8 0 14 9 14 20 0 21 -24 28 -35 10z"/>
<path d="M2822 3173 c2 -10 10 -18 18 -18 8 0 16 8 18 18 2 12 -3 17 -18 17
-15 0 -20 -5 -18 -17z"/>
<path d="M2353 3114 c-7 -18 17 -38 31 -24 11 11 1 40 -14 40 -6 0 -13 -7 -17
-16z"/>
<path d="M2050 3020 c0 -15 5 -20 18 -18 9 2 17 10 17 18 0 8 -8 16 -17 18
-13 2 -18 -3 -18 -18z"/>
<path d="M2784 3026 c-9 -24 12 -44 28 -28 10 10 8 16 -5 29 -15 15 -17 15
-23 -1z"/>
<path d="M1832 2804 c-19 -10 -36 -24 -39 -32 -10 -25 17 -29 58 -9 l40 20 66
-34 c85 -43 138 -44 207 -4 60 35 86 34 160 -4 32 -17 70 -31 84 -31 15 0 59
16 99 36 l73 36 73 -36 c40 -20 84 -36 98 -36 14 0 53 13 85 30 71 36 106 37
161 6 23 -13 55 -27 72 -31 59 -13 154 32 130 61 -9 11 -16 11 -40 -1 -45 -24
-99 -19 -144 13 -31 21 -52 27 -91 27 -39 0 -60 -6 -90 -27 -53 -37 -99 -36
-171 2 -31 17 -68 30 -83 30 -15 0 -52 -13 -83 -30 -31 -16 -70 -30 -87 -30
-17 0 -56 14 -87 30 -31 17 -68 30 -83 30 -16 0 -54 -13 -85 -30 -72 -38 -118
-39 -169 -4 -49 34 -110 40 -154 18z"/>
<path d="M1790 2660 c-31 -31 -28 -102 6 -129 26 -21 34 -21 704 -21 670 0
678 0 704 21 33 26 36 84 5 123 l-20 26 -690 0 c-676 0 -689 0 -709 -20z
m1390 -39 c14 -27 13 -37 -6 -55 -14 -14 -88 -16 -670 -16 -433 0 -662 4 -675
10 -21 12 -25 50 -7 68 9 9 174 12 680 12 649 0 668 -1 678 -19z"/>
<path d="M1880 2450 c-15 -15 -20 -33 -20 -79 0 -68 25 -113 80 -142 32 -18
68 -19 558 -19 512 0 525 1 561 21 55 31 75 65 79 135 4 57 2 62 -23 82 -28
22 -28 22 -621 22 -581 0 -594 0 -614 -20z m1205 -37 c26 -26 14 -89 -24 -127
l-31 -31 -515 -3 c-567 -3 -562 -3 -598 57 -20 34 -22 92 -5 109 9 9 153 12
584 12 523 0 574 -1 589 -17z"/>
<path d="M1478 1345 c-3 -70 -1 -85 12 -85 5 0 10 26 12 58 l3 57 30 -55 c21
-38 37 -56 53 -58 21 -3 22 0 22 72 0 60 -3 76 -14 76 -11 0 -16 -15 -18 -52
l-3 -52 -28 52 c-18 34 -35 52 -47 52 -16 0 -19 -10 -22 -65z"/>
<path d="M1665 1360 c14 -27 25 -61 25 -75 0 -16 6 -25 15 -25 10 0 15 11 15
35 0 21 11 52 25 75 23 36 24 40 7 40 -11 0 -25 -14 -34 -32 l-17 -33 -12 33
c-8 19 -20 32 -31 32 -17 0 -16 -5 7 -50z"/>
<path d="M1798 1376 c-6 -57 3 -116 18 -116 11 0 14 18 14 75 0 57 -3 75 -14
75 -8 0 -15 -14 -18 -34z"/>
<path d="M1870 1335 c0 -58 3 -75 14 -75 8 0 16 12 18 27 4 37 23 39 38 3 8
-18 20 -30 31 -30 18 0 18 3 -5 46 l-24 45 25 27 c14 15 20 28 13 30 -14 5
-45 -7 -37 -14 6 -7 -24 -44 -35 -44 -5 0 -8 14 -8 30 0 20 -5 30 -15 30 -12
0 -15 -15 -15 -75z"/>
<path d="M2017 1403 c-11 -10 -8 -66 4 -101 11 -31 45 -48 78 -37 25 8 41 48
41 100 0 38 -3 45 -20 45 -18 0 -20 -7 -20 -61 0 -57 -1 -60 -22 -57 -20 3
-23 10 -26 61 -3 54 -15 71 -35 50z"/>
<path d="M2182 1338 c2 -46 7 -73 16 -76 8 -2 12 7 12 27 0 39 15 40 35 1 9
-16 22 -30 30 -30 19 0 19 10 -1 38 -9 14 -13 30 -8 40 21 50 5 72 -56 72
l-31 0 3 -72z m66 25 c-5 -26 -38 -29 -38 -4 0 15 6 21 21 21 14 0 19 -5 17
-17z"/>
<path d="M2320 1334 c0 -66 2 -75 18 -72 14 3 18 16 20 76 3 67 1 72 -18 72
-18 0 -20 -6 -20 -76z"/>
<path d="M2392 1388 c5 -32 28 -35 28 -4 0 17 -5 26 -16 26 -10 0 -14 -7 -12
-22z"/>
<path d="M2472 1402 c-7 -5 -14 -19 -17 -31 -3 -17 4 -27 30 -43 40 -23 36
-42 -6 -36 -20 3 -29 0 -29 -9 0 -7 3 -13 8 -14 4 0 16 -2 27 -4 22 -4 65 20
65 36 0 6 -17 27 -37 45 -20 19 -33 35 -27 35 5 1 18 2 29 3 11 1 22 6 25 11
6 12 -50 18 -68 7z"/>
<path d="M2641 1335 l-1 -75 33 0 c34 0 77 23 77 42 0 6 -7 20 -17 30 -9 11
-11 18 -5 18 18 0 14 47 -4 54 -9 3 -31 6 -49 6 l-33 0 -1 -75z m74 24 c-9
-14 -45 -11 -45 4 0 8 3 17 6 20 10 9 46 -12 39 -24z m-7 -52 c2 -12 -3 -17
-17 -17 -15 0 -21 6 -21 21 0 25 33 22 38 -4z"/>
<path d="M2782 1348 c3 -56 6 -64 31 -78 24 -13 30 -13 55 0 24 14 27 22 30
78 2 50 0 62 -12 62 -11 0 -16 -14 -18 -57 -3 -54 -5 -58 -28 -58 -23 0 -25 4
-28 58 -2 43 -7 57 -18 57 -12 0 -14 -12 -12 -62z"/>
<path d="M2940 1335 c0 -68 2 -75 20 -75 16 0 20 7 20 33 l1 32 27 -33 c40
-48 71 -44 32 5 -18 23 -18 27 -5 46 18 26 20 41 3 31 -7 -5 -8 -3 -3 6 11 17
-13 30 -57 30 l-38 0 0 -75z m68 27 c-5 -27 -28 -26 -28 2 0 19 4 24 15 19 9
-3 15 -12 13 -21z"/>
<path d="M3101 1384 c-12 -15 -21 -38 -21 -51 0 -33 42 -73 77 -73 42 0 55 13
51 50 -2 28 -8 34 -30 37 -20 3 -28 -1 -28 -12 0 -8 7 -15 15 -15 8 0 15 -7
15 -16 0 -11 -8 -14 -27 -12 -25 3 -28 7 -28 43 0 39 1 40 38 43 53 5 51 32
-2 32 -31 0 -44 -6 -60 -26z"/>
<path d="M3248 1378 c-2 -18 -1 -52 1 -76 3 -43 3 -43 39 -40 42 4 57 28 18
28 -19 0 -26 5 -26 20 0 13 7 20 20 20 11 0 20 5 20 10 0 6 -9 10 -21 10 -14
0 -19 5 -17 18 2 11 11 16 26 14 15 -2 22 2 22 12 0 12 -10 16 -39 16 -37 0
-40 -2 -43 -32z"/>
<path d="M3360 1335 c0 -68 2 -75 20 -75 15 0 20 7 20 28 0 18 5 29 14 29 8 0
14 -3 13 -6 -4 -19 17 -51 34 -51 25 0 24 6 -7 47 -14 18 -20 32 -14 31 7 -2
16 7 21 19 12 32 -13 53 -62 53 l-39 0 0 -75z m68 28 c-5 -25 -28 -28 -28 -4
0 12 6 21 16 21 9 0 14 -7 12 -17z"/>
<path d="M3512 1398 c-22 -22 -13 -48 23 -69 40 -24 37 -43 -6 -37 -37 6 -40
-19 -4 -28 28 -7 75 18 75 40 0 16 -32 46 -48 46 -7 0 -12 5 -12 10 0 6 0 13
0 17 0 4 9 8 20 8 11 0 21 5 22 10 4 15 -55 18 -70 3z"/>
</g>
</svg>
